<?xml version="1.0" encoding="UTF-8" standalone="no"?>
<!-- Created with Inkscape (http://www.inkscape.org/) -->

<svg
   xmlns:dc="http://purl.org/dc/elements/1.1/"
   xmlns:cc="http://creativecommons.org/ns#"
   xmlns:rdf="http://www.w3.org/1999/02/22-rdf-syntax-ns#"
   xmlns:svg="http://www.w3.org/2000/svg"
   xmlns="http://www.w3.org/2000/svg"
   xmlns:sodipodi="http://sodipodi.sourceforge.net/DTD/sodipodi-0.dtd"
   xmlns:inkscape="http://www.inkscape.org/namespaces/inkscape"
   width="647.87189mm"
   height="189.4209mm"
   viewBox="0 0 647.87189 189.4209"
   version="1.1"
   id="svg937"
   inkscape:version="0.92.4 (5da689c313, 2019-01-14)"
   sodipodi:docname="bondly.svg">
  <defs
     id="defs931" />
  <sodipodi:namedview
     id="base"
     pagecolor="#ffffff"
     bordercolor="#666666"
     borderopacity="1.0"
     inkscape:pageopacity="0.0"
     inkscape:pageshadow="2"
     inkscape:zoom="0.12374369"
     inkscape:cx="966.72183"
     inkscape:cy="-478.31887"
     inkscape:document-units="mm"
     inkscape:current-layer="layer1"
     showgrid="false"
     inkscape:pagecheckerboard="true"
     fit-margin-top="0"
     fit-margin-left="0"
     fit-margin-right="0"
     fit-margin-bottom="0"
     inkscape:window-width="1132"
     inkscape:window-height="924"
     inkscape:window-x="912"
     inkscape:window-y="225"
     inkscape:window-maximized="0" />
  <metadata
     id="metadata934">
    <rdf:RDF>
      <cc:Work
         rdf:about="">
        <dc:format>image/svg+xml</dc:format>
        <dc:type
           rdf:resource="http://purl.org/dc/dcmitype/StillImage" />
        <dc:title />
      </cc:Work>
    </rdf:RDF>
  </metadata>
  <g
     inkscape:label="Layer 1"
     inkscape:groupmode="layer"
     id="layer1"
     transform="translate(486.59885,382.16617)">
    <path
       inkscape:connector-curvature="0"
       id="path1497"
       d="m -395.99723,-192.8933 c -0.76509,-0.0735 -0.91333,-0.14223 -0.57695,-0.26736 0.26868,-0.1 -0.61481,-0.2354 -2.17366,-0.33323 -9.73585,-0.61101 -20.60096,-3.23329 -30.02378,-7.24619 -20.01209,-8.52257 -36.66825,-23.95499 -46.74867,-43.31399 -5.77992,-11.10008 -9.50201,-24.24283 -10.29976,-36.36862 -0.0897,-1.36283 -0.23599,-2.35981 -0.32519,-2.2155 -0.38208,0.61824 -0.62121,-5.82409 -0.31178,-8.40003 0.079,-0.6575 0.21864,-1.14908 0.31036,-1.09239 0.0917,0.0567 0.23942,-1.00128 0.3282,-2.35104 0.63796,-9.6987 3.25812,-20.50262 7.23955,-29.85154 9.49591,-22.29762 27.50968,-40.31139 49.80729,-49.80729 9.42282,-4.01291 20.28793,-6.63519 30.02378,-7.2462 1.44448,-0.0906 2.42701,-0.23474 2.18339,-0.3202 -0.60937,-0.21375 1.89565,-0.45929 4.68574,-0.45929 2.67472,0 5.16244,0.23666 4.80565,0.45716 -0.14235,0.088 0.83956,0.23097 2.18202,0.31776 9.63624,0.623 20.56356,3.27242 29.90523,7.25077 20.00813,8.52087 36.60556,23.8888 46.69149,43.23267 11.76798,22.56988 13.8527,49.05663 5.77141,73.32678 -8.47748,25.45997 -27.73505,46.31147 -52.51796,56.86479 -9.31158,3.96516 -20.10076,6.57794 -29.79648,7.2157 -1.34976,0.0888 -2.40773,0.23648 -2.35104,0.3282 0.24182,0.39127 -5.68708,0.57908 -8.80884,0.27904 z m 39.52151,-37.54745 31.2941,-18.96424 v -9.68009 -9.6801 l -15.7747,-9.41311 c -8.67609,-5.17722 -15.80286,-9.50782 -15.83727,-9.62356 -0.0344,-0.11575 7.06421,-4.49176 15.7747,-9.72447 l 15.83727,-9.51401 0.0599,-8.81749 c 0.0467,-6.88004 -0.004,-8.86865 -0.22881,-9.05035 -0.15876,-0.12807 -8.11384,-4.86299 -17.67796,-10.52204 -9.56411,-5.65904 -22.22855,-13.15297 -28.14319,-16.65317 -21.45269,-12.69538 -19.98647,-11.86726 -20.55386,-11.60874 -0.83462,0.38027 -13.95905,8.30998 -14.39633,8.69818 -0.37515,0.33304 -0.40041,1.52972 -0.40041,18.96774 0,10.23674 -0.0505,18.61226 -0.11218,18.61226 -0.0617,0 -7.00757,-4.11852 -15.43528,-9.15226 -8.42772,-5.03374 -15.53865,-9.15226 -15.80208,-9.15226 -0.5473,0 -17.51992,10.1193 -18.12987,10.80928 -0.37779,0.42735 -0.40041,2.52386 -0.40041,37.11557 0,34.63164 0.0222,36.68192 0.40041,37.01077 0.93884,0.81628 18.14491,10.93431 18.59417,10.93431 0.27175,0 7.27159,-4.06704 15.5552,-9.03786 8.28361,-4.97082 15.12162,-9.03786 15.19557,-9.03786 0.074,0 0.13447,7.96367 0.13447,17.69704 0,16.5698 0.0255,17.71912 0.40041,18.04353 0.70671,0.61151 17.71664,10.70715 18.04026,10.70715 0.17151,0 14.39418,-8.5339 31.60593,-18.96422 z m -32.16461,-1.76682 -0.49271,-0.3451 4.6e-4,-18.00554 4.6e-4,-18.00554 7.24746,-4.34732 c 3.98611,-2.39103 7.46091,-4.34276 7.72178,-4.33717 0.4292,0.009 29.83785,17.39372 30.49838,18.02871 0.21605,0.2077 -4.67021,3.27075 -21.59589,13.53782 -12.03132,7.29817 -22.10284,13.39311 -22.38116,13.54432 -0.40864,0.22201 -0.60087,0.2085 -0.99875,-0.0702 z m -49.63519,-28.36092 -0.50853,-0.35619 v -26.95818 c 0,-28.94116 -0.0479,-27.73206 1.08562,-27.41266 0.22089,0.0623 7.30014,4.23246 15.73166,9.26713 l 15.33003,9.15395 0.0569,9.12161 0.057,9.1216 -15.31746,9.20945 c -8.42459,5.06521 -15.45453,9.20947 -15.62208,9.20947 -0.16755,0 -0.53348,-0.16029 -0.81316,-0.35618 z m 56.40709,-41.98564 -7.26461,-4.35333 v -17.63327 c 0,-14.01609 0.0587,-17.60942 0.28601,-17.51699 0.87059,0.35396 43.84957,25.93972 43.89031,26.12829 0.0564,0.26111 -28.50069,17.52686 -29.1895,17.64809 -0.28526,0.0502 -3.19355,-1.55898 -7.72221,-4.27279 z"
       style="fill:#163eaf;stroke-width:0.2288065"
       sodipodi:nodetypes="ccssssccssssccsccsssssccccccscscccssccsssssscsssscsccccccscsssccccscscccssccccscccc" />
    <path
       inkscape:connector-curvature="0"
       id="path1495"
       d="m 97.586137,-208.97583 c -1.937006,-0.25158 -5.116456,-0.85772 -5.261882,-1.00314 -0.153624,-0.15362 2.00782,-16.89173 2.209056,-17.10677 0.0848,-0.0906 0.718406,-0.005 1.408008,0.18926 1.750687,0.49431 6.787811,0.68712 8.427281,0.32258 3.96252,-0.88108 6.04569,-3.44567 8.95368,-11.02291 l 1.19941,-3.12523 -12.7065,-29.93731 c -6.98855,-16.46552 -13.071093,-30.78675 -13.516717,-31.82496 l -0.810226,-1.88765 h 11.515374 11.515389 l 0.4764,1.31563 c 0.262,0.7236 3.45818,9.91305 7.10259,20.42098 3.64441,10.50794 6.70025,19.29097 6.79079,19.51786 0.10015,0.25101 0.34955,0.38537 0.63702,0.3432 0.41657,-0.0611 1.23178,-2.52517 6.8923,-20.83236 l 6.41983,-20.76308 11.02085,-10e-4 c 8.60884,-6.5e-4 11.04318,-0.0637 11.12299,-0.28713 0.0562,-0.1573 0.17261,-0.22105 0.25876,-0.14165 0.0861,0.0794 -0.005,0.30536 -0.20115,0.50213 -0.19674,0.19677 -3.89694,9.44995 -8.22259,20.56263 -4.32568,11.11267 -11.02994,28.33892 -14.89839,38.28057 -7.01304,18.02308 -8.68305,21.88822 -10.99431,25.44571 -1.40929,2.1692 -4.14786,5.1228 -6.13447,6.61616 -2.84195,2.13633 -6.73775,3.65092 -11.12452,4.32491 -2.35794,0.36228 -9.57384,0.41704 -12.078973,0.0917 z m -256.396247,-29.38883 c -13.4816,-2.18571 -23.88422,-10.69082 -27.82475,-22.74931 -2.48772,-7.61272 -2.22372,-17.30844 0.66748,-24.51483 4.23049,-10.54453 12.91921,-17.49759 25.18322,-20.1526 2.12358,-0.45973 3.05322,-0.521 8.00823,-0.52776 4.96054,-0.007 5.90423,0.0528 8.199,0.51773 11.09219,2.24729 19.49464,8.30164 24.14872,17.40028 2.52012,4.92681 3.58451,9.54356 3.59915,15.61132 0.01,4.00911 -0.25752,6.42005 -1.06326,9.59303 -0.71475,2.81462 -1.2372,4.15607 -2.77133,7.1155 -4.58766,8.84996 -13.32526,15.16739 -24.06946,17.40261 -2.96092,0.61598 -11.07229,0.79117 -14.077,0.30403 z m 9.92389,-17.30067 c 0.69214,-0.13064 2.13362,-0.65387 3.20329,-1.16273 1.60247,-0.76233 2.29351,-1.27667 3.92529,-2.92159 1.65798,-1.67134 2.14828,-2.34652 3.01132,-4.14681 1.51955,-3.16974 1.86308,-4.74609 1.86477,-8.557 0.003,-3.80158 -0.3025,-5.17141 -1.85448,-8.35144 -0.89172,-1.8272 -1.37819,-2.48889 -3.05197,-4.15143 -1.61446,-1.60361 -2.35525,-2.1506 -3.91548,-2.89122 -2.19231,-1.04065 -3.27015,-1.33376 -5.69961,-1.54999 -4.63402,-0.41242 -9.5608,1.49984 -12.59296,4.8878 -1.40419,1.56894 -3.02146,4.75132 -3.68514,7.25135 -0.37851,1.4258 -0.48484,2.488 -0.48102,4.80493 0.006,3.51708 0.47294,5.63004 1.87159,8.46584 3.30788,6.70685 9.71961,9.77275 17.4044,8.32229 z m 143.4837907,17.04966 c -2.67223,-0.44782 -6.4206767,-1.74626 -8.6493457,-2.99609 -8.27689,-4.64164 -13.565889,-12.24403 -15.796413,-22.70571 -0.563432,-2.64266 -0.612582,-3.2961 -0.611959,-8.13599 0,-5.78972 0.255296,-7.58205 1.734829,-12.2136 3.679211,-11.51739 12.385386,-19.41063 23.375904,-21.19316 2.6770814,-0.43419 7.4559749,-0.43663 10.1067496,-0.005 4.7940899,0.78033 9.3294004,3.10309 13.2862644,6.80452 0.929799,0.8698 1.595098,1.32592 1.812374,1.24254 0.30095,-0.11548 0.350509,-2.60868 0.40174,-20.21716 l 0.05844,-20.08543 h 10.296292 10.296292 l 0.05772,49.02179 0.05772,49.02179 h -9.495989 -9.495997 v -3.75659 c 0,-2.06613 -0.06246,-3.91946 -0.138888,-4.11852 -0.260082,-0.67775 -0.889139,-0.35429 -1.805966,0.9286 -2.984556,4.17622 -8.794545,7.38116 -15.2907754,8.43476 -2.5934982,0.42064 -7.6083406,0.40756 -10.1990239,-0.0266 z m 14.5070832,-17.17162 c 4.6406341,-1.16965 8.7231091,-4.97569 10.7372071,-10.01011 2.506912,-6.2663 1.130575,-13.71855 -3.446764,-18.66262 -7.3425634,-7.93083 -20.4777265,-6.08058 -25.1359507,3.54072 -1.4159463,2.92456 -1.8248273,4.84288 -1.8044813,8.46584 0.02127,3.78324 0.462506,5.77124 1.9552839,8.80905 0.7662776,1.55938 1.3447444,2.33114 2.9186145,3.89382 2.0076635,1.99338 3.6131068,3.01693 5.88952455,3.75487 2.59825875,0.84228 6.05049045,0.92325 8.88656595,0.20843 z M -269.00963,-285.95213 v -45.89643 l 21.3362,0.0743 c 21.17447,0.0738 21.35786,0.0784 24.19055,0.60425 10.26872,1.90641 16.71788,6.00068 20.10795,12.76562 2.68138,5.35074 2.69046,13.79383 0.0206,19.19944 -2.06123,4.17339 -6.42807,8.00613 -11.08501,9.72918 -2.65839,0.9836 -2.55744,1.38266 0.54829,2.16774 5.38194,1.36046 10.00852,4.55366 12.85247,8.87055 2.65267,4.02657 3.53964,7.51602 3.35309,13.19139 -0.13408,4.07905 -0.75101,6.93939 -2.11731,9.81642 -3.29808,6.94479 -10.33624,11.97935 -19.56146,13.99279 -5.69932,1.24389 -4.95177,1.20933 -28.08042,1.29824 l -21.56501,0.0829 v -45.89642 z m 40.38435,27.92233 c 4.07138,-1.01873 7.06238,-3.12916 8.35441,-5.89484 1.83155,-3.92052 1.08561,-9.27443 -1.63455,-11.73192 -1.26244,-1.14056 -3.7552,-2.29123 -6.26225,-2.89071 -1.87324,-0.44793 -2.85269,-0.50152 -10.84305,-0.59323 -7.15375,-0.0821 -8.81964,-0.0442 -8.97713,0.20422 -0.23835,0.37597 -0.26706,21.09789 -0.0296,21.33537 0.0939,0.0939 4.13523,0.12604 8.98066,0.0713 7.39697,-0.0835 9.06671,-0.16374 10.41149,-0.50022 z m -1.96504,-37.5095 c 3.56135,-0.91951 6.13673,-2.78664 7.39617,-5.3621 0.72101,-1.47444 0.74609,-1.62182 0.74637,-4.38579 0,-2.58317 -0.0546,-2.97085 -0.56628,-4.00411 -1.56519,-3.16056 -4.88044,-4.8332 -10.64497,-5.3707 -3.32513,-0.31005 -13.50638,-0.30875 -14.08663,0.002 -0.42659,0.2283 -0.44258,0.578 -0.44258,9.67852 0,7.24452 0.0666,9.50984 0.28601,9.73466 0.45738,0.46857 15.33816,0.21735 17.31191,-0.29227 z m 125.40614,23.31465 v -32.14731 h 10.067482 10.067484 v 4.34732 c 0,4.08439 0.02568,4.34732 0.425212,4.34732 0.264273,0 0.754448,-0.49796 1.294998,-1.31564 1.123331,-1.69912 3.740736,-4.2923 5.487194,-5.43638 1.68175,-1.10169 4.906775,-2.5132 7.207405,-3.15451 1.450405,-0.40429 2.371325,-0.47959 5.948967,-0.4864 3.634912,-0.007 4.517417,0.0637 6.246714,0.50041 4.923755,1.24317 9.525286,4.39182 12.289129,8.40893 1.170553,1.70135 2.684884,5.11357 3.307467,7.45265 1.23082,4.62435 1.257432,5.221 1.261959,28.29472 l 0.0039,21.3362 H -51.986974 -62.39767 v -18.36772 c 0,-18.22099 -0.08164,-20.59138 -0.804693,-23.36743 -0.866971,-3.32852 -2.81848,-5.82478 -5.305175,-6.78603 -1.806401,-0.6983 -4.94318,-0.85651 -6.923383,-0.34921 -4.040219,1.03507 -6.91355,4.21219 -8.295406,9.17246 -0.505475,1.81455 -0.510553,1.99497 -0.583227,20.76419 l -0.07331,18.93374 h -10.400812 -10.400804 z m 161.365246,-16.87448 0.05772,-49.0218 h 10.5251 10.5251 l 0.05772,49.0218 0.05772,49.02179 H 66.763884 56.123329 Z"
       style="fill:#ffffff;stroke-width:0.2288065" />
    <path
       style="opacity:1;fill:#ffffff;fill-opacity:1;stroke:#ffffff;stroke-width:1.00157475;stroke-linecap:round;stroke-linejoin:round;stroke-miterlimit:4;stroke-dasharray:none"
       d="M 359.59375 69.398438 C 359.11043 69.381897 358.97826 69.639062 358.57617 69.822266 C 355.4217 71.259507 305.81677 101.23005 304.16406 102.69727 C 302.74617 103.956 302.65234 108.47924 302.65234 174.38672 C 302.65234 213.07676 302.46164 244.73242 302.22852 244.73242 C 301.99532 244.73242 275.74143 229.16774 243.88867 210.14258 C 212.03587 191.11742 185.16166 175.55078 184.16602 175.55078 C 182.09748 175.55078 117.9479 213.7965 115.64258 216.4043 C 114.21471 218.01948 114.12891 225.94327 114.12891 356.68359 C 114.12891 487.57483 114.21312 495.32351 115.64258 496.56641 C 119.19095 499.65156 184.22193 537.89258 185.91992 537.89258 C 186.94701 537.89258 213.40281 522.52173 244.71094 503.73438 C 276.01907 484.94702 301.86308 469.57617 302.14258 469.57617 C 302.42226 469.57617 302.65234 499.67535 302.65234 536.46289 C 302.65234 599.08891 302.74708 603.43209 304.16406 604.6582 C 306.83509 606.96942 371.12453 645.12695 372.34766 645.12695 C 372.99588 645.12695 426.7524 612.87285 491.80469 573.45117 L 610.08008 501.77539 L 610.08008 465.1875 L 610.08008 428.60156 L 550.45898 393.02539 C 517.66746 373.45794 490.73357 357.08979 490.60352 356.65234 C 490.4735 356.21486 517.30112 339.67561 550.22266 319.89844 L 610.08008 283.93945 L 610.30664 250.61328 C 610.48314 224.60998 610.29303 217.09494 609.44336 216.4082 C 608.84332 215.92416 578.77676 198.02916 542.62891 176.64062 C 506.48109 155.25213 458.61431 126.92832 436.25977 113.69922 C 370.38143 74.713406 361.68815 69.470113 359.59375 69.398438 z M 369.45508 151.5918 C 372.7455 152.9296 535.18587 249.63104 535.33984 250.34375 C 535.55301 251.33062 427.62095 316.58673 425.01758 317.04492 C 423.93943 317.23465 412.94823 311.1534 395.83203 300.89648 L 368.375 284.44141 L 368.375 217.79688 C 368.375 164.82268 368.59595 151.24246 369.45508 151.5918 z M 183.41406 252.35742 C 183.81912 252.38427 184.28479 252.58934 184.82031 252.74023 C 185.65517 252.9757 212.41213 268.73695 244.2793 287.76562 L 302.21875 322.36328 L 302.43359 356.83789 L 302.65039 391.3125 L 244.75586 426.12109 C 212.91489 445.26519 186.34615 460.92773 185.71289 460.92773 C 185.07963 460.92773 183.69573 460.3224 182.63867 459.58203 L 180.7168 458.23633 L 180.7168 356.3457 C 180.7168 260.63478 180.57866 252.16949 183.41406 252.35742 z M 424.95508 396.54102 C 426.57725 396.57503 537.72812 462.27973 540.22461 464.67969 C 541.04118 465.4647 522.57264 477.04298 458.60156 515.84766 C 413.12886 543.43129 375.06364 566.46561 374.01172 567.03711 C 372.46725 567.8762 371.74013 567.82679 370.23633 566.77344 L 368.375 565.46875 L 368.37695 497.41602 L 368.37891 429.36328 L 395.76953 412.93359 C 410.83514 403.89663 423.96911 396.51989 424.95508 396.54102 z "
       transform="matrix(0.26458333,0,0,0.26458333,-486.59885,-382.16617)"
       id="path814" />
  </g>
</svg>
